HIERARCHY
ROOT hip
{
	OFFSET 0.000000 0.000000 0.000000 
	CHANNELS 6 Xposition Yposition Zposition Xrotation Zrotation Yrotation
	JOINT abdomen
	{
		OFFSET 0.000000 3.402643 0.000000 
		CHANNELS 3 Xrotation Zrotation Yrotation
		JOINT chest
		{
			OFFSET 0.000000 8.438565 -0.680529 
			CHANNELS 3 Xrotation Zrotation Yrotation
			JOINT neck
			{
				OFFSET 0.000000 10.207942 -0.272212 
				CHANNELS 3 Xrotation Zrotation Yrotation
				JOINT head
				{
					OFFSET 0.000000 3.130431 0.000000 
					CHANNELS 3 Xrotation Zrotation Yrotation
					End Site
					{
						OFFSET 0.000000 3.130435 0.000000 
					}
				}
			}
			JOINT lCollar
			{
				OFFSET 3.470700 6.669187 -0.816635 
				CHANNELS 3 Yrotation Zrotation Xrotation
				JOINT lShldr
				{
					OFFSET 3.198488 0.000000 0.000000 
					CHANNELS 3 Zrotation Yrotation Xrotation
					JOINT lForeArm
					{
						OFFSET 10.139888 0.000000 0.000000 
						CHANNELS 3 Yrotation Zrotation Xrotation
						JOINT lHand
						{
							OFFSET 8.370511 0.000000 0.000000 
							CHANNELS 3 Zrotation Yrotation Xrotation
							End Site
							{
								OFFSET 4.083176 0.000000 0.000000 
							}
						}
					}
				}
			}
			JOINT rCollar
			{
				OFFSET -3.470700 6.669187 -0.816635 
				CHANNELS 3 Yrotation Zrotation Xrotation
				JOINT rShldr
				{
					OFFSET -3.198488 0.000000 0.000000 
					CHANNELS 3 Zrotation Yrotation Xrotation
					JOINT rForeArm
					{
						OFFSET -10.139888 0.000000 0.000000 
						CHANNELS 3 Yrotation Zrotation Xrotation
						JOINT rHand
						{
							OFFSET -8.370511 0.000000 0.000000 
							CHANNELS 3 Zrotation Yrotation Xrotation
							End Site
							{
								OFFSET -4.083176 0.000000 0.000000 
							}
						}
					}
				}
			}
		}
	}
	JOINT lThigh
	{
		OFFSET 5.308129 -1.633274 1.361059 
		CHANNELS 3 Xrotation Zrotation Yrotation
		JOINT lShin
		{
			OFFSET -2.041588 -20.007561 0.000000 
			CHANNELS 3 Xrotation Zrotation Yrotation
			JOINT lFoot
			{
				OFFSET 0.000000 -19.190928 -1.224953 
				CHANNELS 3 Xrotation Yrotation Zrotation
				End Site
				{
					OFFSET 0.000000 -2.449906 4.627600 
				}
			}
		}
	}
	JOINT rThigh
	{
		OFFSET -5.308129 -1.633274 1.361059 
		CHANNELS 3 Xrotation Zrotation Yrotation
		JOINT rShin
		{
			OFFSET 2.041588 -20.007561 0.000000 
			CHANNELS 3 Xrotation Zrotation Yrotation
			JOINT rFoot
			{
				OFFSET 0.000000 -19.190928 -1.224953 
				CHANNELS 3 Xrotation Yrotation Zrotation
				End Site
				{
					OFFSET 0.000000 -2.449906 4.627600 
				}
			}
		}
	}
}
MOTION
Frames: 16
Frame Time: 0.016667
16.137047 49.718204 -37.452648 -1.619655 -17.216146 -83.246002 34.150295 0.771421 -0.732487 -13.040571 8.603293 -0.414306 -5.001795 2.424681 31.457239 8.407629 -18.995525 32.820347 -3.078498 -13.417445 -0.009485 -27.756805 -38.545612 30.808903 -87.402672 2.463238 29.599939 -20.578701 -8.716404 3.245803 -1.678676 5.918256 -0.010716 32.151100 9.218102 46.655827 81.114388 -3.647841 46.282280 1.943335 0.293131 0.000175 -6.797145 15.626862 25.726643 40.085846 -0.688204 -3.050583 11.729241 -27.084105 -7.063622 10.494631 -0.126392 3.216977 31.405500 1.030359 2.607485 -27.143599 -3.801104 10.396078 
16.239174 49.771145 -37.239460 -2.020150 -17.373709 -82.034225 34.272102 0.693197 -1.240262 -12.758642 9.227584 -0.820415 -5.377866 2.556618 31.813021 8.425538 -19.106796 33.203865 -3.029700 -13.583468 -0.009479 -27.485285 -38.859669 31.369997 -86.085983 2.492477 29.961752 -20.407896 -8.670852 3.198959 -1.942385 5.703456 -0.010682 29.865934 8.037561 44.703770 81.654167 -3.600003 45.473881 2.421866 0.400446 0.007163 -7.129106 16.285934 25.874655 40.641891 -0.649295 -3.083739 12.133456 -26.193182 -7.035590 10.891556 -0.379771 2.821602 30.965769 1.054719 2.582032 -26.838638 -4.592259 10.020895 
16.308893 49.844570 -37.026848 -2.387516 -17.497265 -80.788803 34.296192 0.644214 -1.796981 -12.689296 9.694824 -1.297203 -5.367213 2.871078 32.115746 8.471934 -19.234499 33.539066 -2.980886 -13.661602 -0.009477 -27.167534 -38.877567 32.205353 -84.762901 2.533665 30.342426 -20.313845 -8.553303 3.151183 -2.118207 5.469111 -0.010645 27.716352 6.571443 42.350960 82.570572 -3.545506 44.698666 2.832174 0.575468 0.028565 -7.207304 16.926077 26.002747 40.807312 -0.629779 -3.104387 11.982810 -24.550522 -7.416963 11.403181 -0.614555 2.385747 30.379883 1.079177 2.539371 -26.288528 -5.257072 9.706463 
16.349033 49.919888 -36.814037 -2.850366 -17.657116 -79.538689 34.353714 0.507366 -2.402422 -12.683853 10.112160 -1.823820 -5.180545 3.112183 32.329113 8.466668 -19.251364 33.788033 -2.902768 -13.700677 -0.009476 -26.751001 -38.794964 33.232182 -83.303757 2.543596 30.558447 -20.239908 -8.496296 3.107117 -2.323328 5.215240 -0.010605 25.645651 5.177660 39.553925 83.686920 -3.481626 43.732128 3.320553 0.877996 0.041304 -6.982687 17.515318 26.130924 40.602856 -0.649120 -3.081772 11.628569 -22.400078 -7.976320 11.992035 -0.917823 1.960852 29.832466 1.108445 2.509368 -25.954521 -5.938778 9.395323 
16.365759 50.003235 -36.594170 -3.237389 -17.787062 -78.400696 34.306007 0.390104 -2.959049 -12.646057 10.528851 -2.292806 -4.952774 3.205655 32.488808 8.518897 -19.158812 33.944344 -2.814905 -13.847178 -0.009470 -26.145576 -38.684521 34.259014 -81.883904 2.598946 31.168978 -20.271000 -8.522188 3.121482 -2.577292 4.883252 -0.010552 23.499384 3.853849 36.362213 85.125031 -3.366728 42.035633 3.935961 0.984672 0.058119 -6.416550 18.119192 26.336939 39.832333 -0.697639 -3.031671 11.106919 -19.882868 -8.625263 12.664074 -1.220110 1.508061 29.079882 1.137730 2.468763 -25.437838 -6.417490 9.205659 
16.367247 50.068455 -36.353371 -3.652527 -17.856298 -77.429367 34.195400 0.224198 -3.466809 -12.564753 10.740263 -2.702499 -4.661271 3.392158 32.574059 8.488796 -19.174316 34.032417 -2.600063 -13.856978 -0.009472 -25.456835 -38.600697 35.452557 -80.478706 2.629227 31.572632 -20.375814 -8.268624 3.046589 -2.860544 4.600097 -0.010505 21.404482 2.732049 32.740570 86.663742 -3.259124 40.439968 4.454092 1.324873 0.093604 -5.732576 18.670977 26.581133 38.865791 -0.746126 -2.990749 10.469344 -16.944353 -9.332222 13.263453 -1.619621 0.989622 28.483091 1.167119 2.445520 -25.195118 -6.779159 9.078381 
16.355295 50.128258 -36.096458 -3.972364 -17.871363 -76.598877 33.967327 0.107175 -3.886712 -12.523797 10.912496 -3.062448 -4.260940 3.482301 32.587315 8.495555 -19.137720 34.047237 -2.375472 -13.954673 -0.009469 -24.716000 -38.460281 36.734703 -79.213371 2.696083 32.328075 -20.632517 -8.080879 3.018375 -3.134766 4.287109 0.000000 19.249641 1.671257 28.817835 88.332718 -3.121147 38.531666 5.168062 1.722372 0.146188 -4.854598 19.232632 26.805815 37.469692 -0.814119 -2.924460 9.877638 -14.089256 -9.955673 13.800263 -2.049434 0.447446 27.897764 1.186503 2.381403 -24.860365 -6.894607 9.048006 
16.334135 50.179630 -35.824078 -4.190910 -17.819765 -75.920464 33.666904 0.068178 -4.169919 -12.591488 10.997340 -3.342017 -3.725017 3.483058 32.567841 8.502087 -19.066992 34.019047 -2.189918 -13.915642 -0.009472 -24.159142 -38.120396 38.012745 -78.135689 2.775970 33.439362 -21.130087 -7.994097 3.054861 -3.427059 3.965427 -0.010400 17.082230 0.702848 24.663092 90.000000 -2.998047 36.612083 5.755476 2.001586 0.201919 -3.916307 19.814089 26.920338 35.809952 -0.891795 -2.836969 9.462579 -11.162358 -10.515261 14.281521 -2.431128 -0.033681 27.311113 1.210566 2.347314 -24.652773 -7.008408 9.026508 
16.307014 50.216324 -35.533703 -4.442009 -17.723969 -75.308723 33.333851 -0.048682 -4.433600 -12.651143 11.062862 -3.581384 -3.197644 3.443778 32.517365 8.542733 -19.022896 33.945831 -2.072731 -13.915663 -0.009473 -23.522032 -37.584435 39.099522 -77.318321 2.857929 34.638920 -21.810125 -7.763063 3.083226 -3.729851 3.623682 -0.010343 15.002118 -0.143815 20.131701 91.610474 -2.847678 34.666481 6.343595 2.514907 0.269856 -2.891930 20.240622 26.880253 33.876446 -0.969334 -2.733976 9.361790 -8.282127 -10.959523 14.612695 -2.928396 -0.528475 26.959158 1.235289 2.315413 -24.414295 -7.022181 9.048259 
16.265181 50.239735 -35.236080 -4.618126 -17.579702 -74.688736 32.900162 -0.116799 -4.667979 -12.555230 11.099429 -3.780545 -2.943052 3.471865 32.430286 8.627589 -18.936268 33.829708 -1.955529 -13.837558 -0.009477 -22.915377 -37.036797 39.937500 -76.676575 2.956447 35.952202 -22.508823 -7.725196 3.176660 -4.091230 3.330775 -0.010292 13.012744 -0.761217 15.191828 93.099068 -2.705802 32.681934 6.852919 2.706336 0.315418 -1.907418 20.694424 26.677040 31.835171 -1.066552 -2.609426 9.226342 -5.487226 -11.381844 14.973342 -3.328567 -1.036139 26.539032 1.244997 2.286369 -24.242905 -7.053819 9.068861 
16.226856 50.251480 -34.931484 -4.776434 -17.388704 -74.065498 32.526257 -0.194615 -4.843789 -12.765083 11.174813 -3.981589 -2.397597 3.382656 32.387814 8.627556 -18.804514 33.767879 -1.887156 -13.759445 -0.009480 -22.531351 -36.141052 40.767025 -76.262947 3.056513 37.288284 -23.114016 -7.803369 3.294549 -4.354959 2.998789 -0.010235 11.206573 -1.468912 10.064138 94.426422 -2.560488 30.819725 7.148224 3.034139 0.370516 -0.910308 21.049459 26.189890 29.527195 -1.173603 -2.519581 9.306004 -2.737623 -11.781943 15.224451 -3.730576 -1.541218 26.216356 1.267818 2.255328 -24.151546 -7.079598 9.066429 
16.171938 50.260197 -34.625786 -4.837569 -17.189972 -73.358513 32.089851 -0.223758 -4.990311 -12.753078 11.279943 -4.130951 -2.254401 3.328515 32.288101 8.903785 -18.623848 33.612003 -1.887152 -13.739914 -0.009481 -22.143599 -35.290321 41.243675 -75.955055 3.101894 38.056980 -23.706310 -7.752482 3.389090 -4.755408 2.657059 -0.010174 9.628640 -1.977032 4.497405 95.558456 -2.414383 28.937288 7.305342 3.129981 0.391718 0.068158 21.503580 25.604662 27.141888 -1.270776 -2.371580 9.452362 -0.054992 -12.205201 15.508922 -4.001996 -1.972258 25.874275 1.278481 2.230349 -23.935362 -7.266018 9.012465 
16.118576 50.255913 -34.313499 -4.914663 -16.947672 -72.549828 31.681934 -0.243168 -5.117265 -12.919390 11.384813 -4.291799 -2.058494 3.215695 32.205677 9.043099 -18.379473 33.471348 -1.867632 -13.798510 -0.009479 -21.813572 -34.275528 41.604984 -75.868187 3.148107 38.591698 -23.999702 -7.730109 3.415792 -5.126565 2.286029 -0.010108 8.368928 -2.497813 -1.274463 96.457901 -2.265103 27.056456 7.109871 3.150678 0.383469 0.903843 21.818102 24.629347 24.677948 -1.358125 -2.194918 9.621126 2.743270 -12.604898 15.655823 -4.206865 -2.385657 25.639610 1.274124 2.227162 -23.718607 -7.616247 8.876130 
16.059500 50.240128 -33.997898 -5.017068 -16.678770 -71.588478 31.323172 -0.369523 -5.273580 -13.018605 11.548275 -4.435465 -2.114318 3.253962 32.060070 9.331038 -18.154314 33.276886 -1.779734 -13.759461 -0.009481 -21.669025 -33.317936 41.736797 -75.803314 3.149768 38.578468 -24.119913 -7.758762 3.447361 -5.439133 1.885691 -0.010038 7.502563 -2.988850 -7.420224 97.123749 -2.143274 25.569963 6.710316 3.287919 0.387108 1.587656 22.053339 23.271149 22.328371 -1.449154 -2.041301 9.732625 5.736222 -13.040258 15.842381 -4.422193 -2.889954 25.473227 1.288078 2.211816 -23.646833 -8.028690 8.694564 
15.993007 50.225727 -33.675381 -5.098825 -16.399569 -70.524483 30.991224 -0.466684 -5.381078 -13.223166 11.751019 -4.548547 -2.108779 3.127182 31.889503 9.516188 -17.874626 33.049725 -1.713807 -13.876371 -0.018953 -21.571152 -32.276951 41.694286 -75.865509 3.113106 38.263222 -24.145046 -7.846701 3.490887 -5.820065 1.465834 -0.009962 6.869323 -3.378797 -13.667782 97.621552 -2.006342 23.945608 5.936079 3.128711 0.315421 2.232252 22.228813 21.525618 19.867872 -1.533229 -1.907117 9.727303 9.137152 -13.558673 16.011368 -4.549916 -3.377420 25.306316 1.297597 2.214962 -23.313091 -8.599745 8.483309 
15.922664 50.208664 -33.333969 -5.276505 -16.111246 -69.295845 30.705351 -0.631845 -5.498465 -13.394812 11.807820 -4.648118 -2.266625 3.325945 31.670904 9.964069 -17.749863 32.761974 -1.574663 -13.798560 -0.009480 -21.680557 -31.325403 41.541492 -75.968216 3.073539 37.458954 -24.040670 -7.754536 3.432868 -6.132607 1.211981 -0.009914 6.567111 -3.720568 -20.127914 97.951080 -1.873282 22.247396 4.653882 2.891635 0.225725 2.936064 22.396879 21.016966 17.535950 -1.571641 -1.741413 9.362044 11.367702 -13.826472 16.252775 -4.725046 -4.002819 25.140911 1.297537 2.187001 -23.027872 -9.146688 8.288170 
